<svg xmlns="http://www.w3.org/2000/svg" fill="#10b981" height="20" viewBox="0 -960 960 960" width="20"><path d="m429.038-353.886 219.269-218.268-34.73-34.73-184.539 183.539-83.384-82.385-34.73 34.73 118.114 117.114Zm51.054 229.808q-73.152 0-138.066-27.825-64.914-27.824-113.652-76.595-48.738-48.77-76.517-113.555-27.779-64.785-27.779-137.855 0-74.152 27.825-138.566 27.824-64.414 76.595-113.152 48.77-48.738 113.555-76.517 64.785-27.779 137.855-27.779 74.152 0 138.566 27.825 64.414 27.824 113.152 76.595 48.738 48.77 76.517 113.055 27.779 64.285 27.779 138.355 0 73.152-27.825 138.066-27.824 64.914-76.595 113.652-48.77 48.738-113.055 76.517-64.285 27.779-138.355 27.779Z"/></svg>