<svg xmlns="http://www.w3.org/2000/svg" fill="#d63031" height="20" viewBox="0 -960 960 960" width="20"><path d="M479.684-302.808q11.431 0 19.219-7.473 7.789-7.472 7.789-18.903 0-11.431-7.473-19.22-7.472-7.788-18.903-7.788-11.431 0-19.219 7.473-7.789 7.472-7.789 18.903 0 11.431 7.473 19.219 7.472 7.789 18.903 7.789Zm-23.26-126.115h47.96v-236.769h-47.96v236.769Zm23.943 304.845q-73.427 0-138.341-27.825-64.914-27.824-113.652-76.595-48.738-48.77-76.517-113.513-27.779-64.744-27.779-138.356 0-73.693 27.825-138.107 27.824-64.414 76.595-113.152 48.77-48.738 113.513-76.517 64.744-27.779 138.356-27.779 73.693 0 138.107 27.825 64.414 27.824 113.152 76.595 48.738 48.77 76.517 113.28 27.779 64.509 27.779 137.855 0 73.427-27.825 138.341-27.824 64.914-76.595 113.652-48.77 48.738-113.28 76.517-64.509 27.779-137.855 27.779Z"/></svg>