<svg xmlns="http://www.w3.org/2000/svg" fill="#2f85c7" height="40" viewBox="0 -960 960 960" width="40"><path d="M439.667-130h-184q-99.671 0-171.336-69.768-71.664-69.768-71.664-171.562 0-84.266 50.334-152.801 50.333-68.535 132.666-84.202 26-99 105.534-160.333Q380.735-830 481.645-830 599.333-830 684-747.5q84.666 82.5 94.333 201.167v16q74.333 12.667 121.666 68.206 47.334 55.54 47.334 132.127 0 83.694-58.153 141.847Q831.028-130 747.333-130H521v-295.001l81.667 83 57.999-56.333L480-579.333 300-398.334l57.333 56.333 82.334-83V-130Z"/></svg>